<?xml version="1.0" encoding="utf-8"?>
<!-- Generator: Adobe Illustrator 23.0.1, SVG Export Plug-In . SVG Version: 6.00 Build 0)  -->
<svg version="1.1" id="Layer_1" xmlns="http://www.w3.org/2000/svg" xmlns:xlink="http://www.w3.org/1999/xlink" x="0px" y="0px"
	 viewBox="0 0 611 107.6" style="enable-background:new 0 0 611 107.6;" xml:space="preserve">
<style type="text/css">
	.st0{fill:url(#SVGID_1_);}
	.st1{fill:#3C6EB4;}
	.st2{fill:#233C79;}
	.st3{fill:#808081;}
</style>
<linearGradient id="SVGID_1_" gradientUnits="userSpaceOnUse" x1="0" y1="53.7963" x2="100.8048" y2="53.7963">
	<stop  offset="0" style="stop-color:#2A367C"/>
	<stop  offset="1" style="stop-color:#0064A9"/>
</linearGradient>
<path class="st0" d="M100.8,16l-8.9,5.3l0,0l-2.3-3.8l0,0l0,0l6.6-3.9l3.7-2.2c-0.4-1.1-0.9-2.1-1.5-3v0l-10.6,6.3l0,0l0,0l-2.3-3.8
	l9.8-5.8c-1-0.8-2-1.4-3.1-2l-8.5,5l-2.2-3.7L81.5,4l5.1-3.1c-16.5-3.8-45.4,4.2-75,21.6C43.2,7.7,70.9,5,79.1,17.6
	c9.2,14.3-9.7,43.2-43.1,68c-3.7,2.8-8,5.7-12.1,8.4l-1.7,1.1c-8.4,5.3-14,8.8-22.2,12.5c7.7-2.5,15.1-5.7,22.2-9.5l0,0h0h0l0,0
	c4.3-2.2,9.3-5,13.6-7.6c1.9-1.1,3.8-2.3,5.7-3.5C77.8,63.5,101.7,34.1,100.8,16z"/>
<g>
	<path class="st1" d="M138.2,57.3h-5.8V22.8H125v-5.4h20.7v5.4h-7.5V57.3z"/>
	<path class="st1" d="M144.5,42.3c0-2.1,0.4-4.1,1.1-6c0.7-1.9,1.8-3.5,3.2-5c1.5-1.6,3.2-2.9,5.1-3.8c1.9-0.9,3.9-1.3,5.9-1.3
		c2.2,0,4.2,0.4,6.1,1.2c1.9,0.8,3.6,1.9,5.1,3.5c1.5,1.5,2.6,3.2,3.4,5.1c0.8,1.9,1.2,3.9,1.2,5.9c0,2.1-0.4,4.1-1.1,6
		c-0.7,2-1.8,3.7-3.1,5.1c-1.5,1.7-3.3,3-5.2,3.8c-1.9,0.9-3.9,1.3-6.1,1.3c-2.2,0-4.3-0.4-6.1-1.2c-1.9-0.8-3.5-2-5-3.5
		c-1.4-1.5-2.5-3.2-3.3-5.2C144.9,46.3,144.5,44.3,144.5,42.3z M150.1,42.2c0,3,1,5.5,2.9,7.5c1.9,2,4.3,3,7.1,3c2.8,0,5.1-1,7-3
		c1.9-2,2.8-4.5,2.8-7.6c0-3.1-0.9-5.6-2.8-7.6c-1.9-2-4.3-3-7.1-3c-2.8,0-5.2,1-7.1,3C151.1,36.6,150.1,39.2,150.1,42.2z"/>
	<path class="st1" d="M197.1,36.9l-6.2,20.4h-3l-10.4-30.2h5.8l6.2,19.9l6.1-19.9h3.3l6.1,19.9l6.2-19.9h5.7l-10.5,30.2h-3
		L197.1,36.9z"/>
	<path class="st1" d="M224.3,44.2c0.5,2.5,1.6,4.6,3.4,6.1c1.8,1.6,4,2.3,6.5,2.3c1.8,0,3.4-0.4,4.9-1.3c1.5-0.9,2.6-2.1,3.5-3.6
		h6.1c-1.4,3.3-3.3,5.9-5.8,7.7c-2.5,1.8-5.4,2.7-8.7,2.7c-2.2,0-4.3-0.4-6.1-1.2c-1.8-0.8-3.5-2-5-3.5c-1.4-1.5-2.5-3.2-3.3-5.2
		c-0.8-2-1.2-4-1.2-6c0-2.1,0.4-4.1,1.1-6c0.7-1.8,1.8-3.5,3.2-5c1.5-1.6,3.2-2.9,5.1-3.7c1.9-0.8,3.9-1.2,6.2-1.2
		c2.7,0,5.1,0.6,7.4,1.8c2.3,1.2,4.2,3,5.6,5.2c0.9,1.4,1.5,2.9,1.9,4.5c0.4,1.6,0.6,3.5,0.6,5.6v0.8H224.3z M243.8,39.4
		c-0.7-2.5-1.8-4.4-3.5-5.8c-1.7-1.4-3.7-2-6-2c-2.4,0-4.4,0.7-6.2,2.1c-1.7,1.4-2.9,3.3-3.6,5.7H243.8z"/>
	<path class="st1" d="M259.9,57.3h-5.4V27.1h5.1v3.5c0.9-1.3,1.9-2.3,3.1-3c1.2-0.6,2.5-1,4-1v5.7c-2.4,0.2-4.2,0.9-5.2,2.2
		c-1.1,1.3-1.6,3.3-1.6,6V57.3z"/>
	<path class="st2" d="M291.7,57.3h-5.8V22.8h-7.5v-5.4h20.7v5.4h-7.5V57.3z"/>
	<path class="st2" d="M303.7,44.2c0.5,2.5,1.6,4.6,3.4,6.1c1.8,1.6,4,2.3,6.5,2.3c1.8,0,3.4-0.4,4.9-1.3s2.6-2.1,3.5-3.6h6.1
		c-1.4,3.3-3.3,5.9-5.8,7.7c-2.5,1.8-5.4,2.7-8.7,2.7c-2.2,0-4.3-0.4-6.1-1.2c-1.8-0.8-3.5-2-5-3.5c-1.4-1.5-2.5-3.2-3.3-5.2
		c-0.8-2-1.2-4-1.2-6c0-2.1,0.4-4.1,1.1-6c0.7-1.8,1.8-3.5,3.2-5c1.5-1.6,3.2-2.9,5.1-3.7c1.9-0.8,3.9-1.2,6.2-1.2
		c2.7,0,5.1,0.6,7.4,1.8c2.3,1.2,4.2,3,5.6,5.2c0.9,1.4,1.5,2.9,1.9,4.5c0.4,1.6,0.6,3.5,0.6,5.6v0.8H303.7z M323.1,39.4
		c-0.7-2.5-1.8-4.4-3.5-5.8s-3.7-2-6-2c-2.4,0-4.4,0.7-6.2,2.1c-1.7,1.4-2.9,3.3-3.6,5.7H323.1z"/>
	<path class="st2" d="M362.4,47c-1.3,3.6-3.1,6.4-5.6,8.3c-2.5,1.9-5.5,2.8-9.1,2.8c-2.2,0-4.3-0.4-6.1-1.2c-1.8-0.8-3.5-1.9-5-3.5
		c-1.4-1.5-2.5-3.2-3.3-5.2c-0.8-2-1.2-4-1.2-6c0-2.1,0.4-4.1,1.1-5.9c0.7-1.8,1.8-3.5,3.2-5c1.6-1.7,3.3-2.9,5.2-3.8
		c1.9-0.9,4-1.3,6.2-1.3c3.5,0,6.5,1,9,2.9c2.5,1.9,4.4,4.6,5.5,8h-6c-0.9-1.8-2.2-3.2-3.7-4.1c-1.5-0.9-3.3-1.4-5.4-1.4
		c-2.7,0-5,1-6.8,3c-1.9,2-2.8,4.5-2.8,7.5c0,3,0.9,5.5,2.9,7.5c1.9,2,4.3,3,7.1,3c1.9,0,3.6-0.5,5.2-1.5c1.5-1,2.7-2.4,3.6-4.2
		H362.4z"/>
	<path class="st2" d="M373.3,57.3h-5.4V17.4h5.4v13.2c0.9-1.3,2-2.3,3.4-2.9c1.4-0.7,3-1,4.9-1c3.7,0,6.5,1.2,8.5,3.5s3,5.6,3,9.8
		v17.3h-5.4V41.8c0-3.3-0.6-5.8-1.7-7.5c-1.1-1.6-2.9-2.4-5.2-2.4c-1.4,0-2.7,0.3-3.8,1c-1.1,0.7-2,1.6-2.6,2.9
		c-0.4,0.7-0.7,1.7-0.9,2.7c-0.2,1.1-0.3,2.8-0.3,5.2V57.3z"/>
	<path class="st2" d="M405,57.3h-5.4V27.1h5.2v3.4c1.1-1.4,2.4-2.3,3.7-3c1.4-0.6,2.9-0.9,4.7-0.9c4,0,7,1.2,9.1,3.5
		c2.1,2.3,3.2,5.6,3.2,10v17.2H420v-16c0-3.2-0.6-5.6-1.8-7.1c-1.2-1.5-3-2.3-5.5-2.3c-2.7,0-4.7,0.9-5.9,2.7
		c-1.2,1.8-1.8,4.8-1.8,9V57.3z"/>
	<path class="st2" d="M430.1,42.3c0-2.1,0.4-4.1,1.1-6c0.7-1.9,1.8-3.5,3.2-5c1.5-1.6,3.2-2.9,5.1-3.8c1.9-0.9,3.9-1.3,5.9-1.3
		c2.2,0,4.2,0.4,6.1,1.2c1.9,0.8,3.6,1.9,5.1,3.5c1.5,1.5,2.6,3.2,3.4,5.1c0.8,1.9,1.2,3.9,1.2,5.9c0,2.1-0.4,4.1-1.1,6
		c-0.7,2-1.8,3.7-3.1,5.1c-1.5,1.7-3.3,3-5.2,3.8c-1.9,0.9-3.9,1.3-6.1,1.3c-2.2,0-4.3-0.4-6.1-1.2c-1.9-0.8-3.5-2-5-3.5
		c-1.4-1.5-2.5-3.2-3.3-5.2C430.5,46.3,430.1,44.3,430.1,42.3z M435.7,42.2c0,3,1,5.5,2.9,7.5c1.9,2,4.3,3,7.1,3c2.8,0,5.1-1,7-3
		c1.9-2,2.8-4.5,2.8-7.6c0-3.1-0.9-5.6-2.8-7.6c-1.9-2-4.3-3-7.1-3c-2.8,0-5.2,1-7.1,3C436.6,36.6,435.7,39.2,435.7,42.2z"/>
	<path class="st2" d="M465.8,57.3V17.4h5.4v39.9H465.8z"/>
	<path class="st2" d="M475.9,42.3c0-2.1,0.4-4.1,1.1-6c0.7-1.9,1.8-3.5,3.2-5c1.5-1.6,3.2-2.9,5.1-3.8c1.9-0.9,3.9-1.3,5.9-1.3
		c2.2,0,4.2,0.4,6.1,1.2c1.9,0.8,3.6,1.9,5.1,3.5c1.5,1.5,2.6,3.2,3.4,5.1c0.8,1.9,1.2,3.9,1.2,5.9c0,2.1-0.4,4.1-1.1,6
		c-0.7,2-1.8,3.7-3.1,5.1c-1.5,1.7-3.3,3-5.2,3.8c-1.9,0.9-3.9,1.3-6.1,1.3c-2.2,0-4.3-0.4-6.1-1.2c-1.9-0.8-3.5-2-5-3.5
		c-1.4-1.5-2.5-3.2-3.3-5.2C476.3,46.3,475.9,44.3,475.9,42.3z M481.5,42.2c0,3,1,5.5,2.9,7.5c1.9,2,4.3,3,7.1,3c2.8,0,5.1-1,7-3
		c1.9-2,2.8-4.5,2.8-7.6c0-3.1-0.9-5.6-2.8-7.6c-1.9-2-4.3-3-7.1-3c-2.8,0-5.2,1-7.1,3C482.5,36.6,481.5,39.2,481.5,42.2z"/>
	<path class="st2" d="M512.1,59.7h5.8c0.8,1.4,1.9,2.5,3.3,3.2c1.4,0.7,2.9,1.1,4.7,1.1c3.1,0,5.5-0.9,7.4-2.8
		c1.9-1.8,2.8-4.3,2.8-7.3v-0.4c-1.4,1.4-2.9,2.5-4.6,3.3c-1.7,0.7-3.5,1.1-5.5,1.1c-4.5,0-8.3-1.5-11.3-4.5c-3-3-4.5-6.8-4.5-11.4
		c0-2.1,0.4-4.1,1.1-6c0.7-1.9,1.8-3.6,3.2-5c1.5-1.6,3.2-2.8,5-3.5c1.8-0.8,3.9-1.1,6.2-1.1c2,0,3.9,0.4,5.7,1.1s3.4,1.8,4.8,3.3
		v-3.6h5.4v25.2c0,5.2-1.4,9.4-4.1,12.3c-2.7,3-6.5,4.5-11.2,4.5c-3.5,0-6.4-0.8-8.9-2.5C514.9,65,513.2,62.7,512.1,59.7z M515.8,42
		c0,3.1,1,5.6,3,7.7c2,2.1,4.5,3.1,7.4,3.1c2.7,0,5-1,7.1-3.1c2-2.1,3.1-4.5,3.1-7.3c0-3-1-5.5-3-7.6c-2-2.1-4.4-3.2-7.2-3.2
		c-2.9,0-5.3,1-7.3,3C516.8,36.7,515.8,39.1,515.8,42z"/>
	<path class="st2" d="M553.3,23.6h-5.4v-6.2h5.4V23.6z M547.9,57.3V27.1h5.4v30.2H547.9z"/>
	<path class="st2" d="M563.8,44.2c0.5,2.5,1.6,4.6,3.4,6.1c1.8,1.6,4,2.3,6.5,2.3c1.8,0,3.4-0.4,4.9-1.3c1.5-0.9,2.6-2.1,3.5-3.6
		h6.1c-1.4,3.3-3.3,5.9-5.8,7.7c-2.5,1.8-5.4,2.7-8.7,2.7c-2.2,0-4.3-0.4-6.1-1.2c-1.8-0.8-3.5-2-5-3.5c-1.4-1.5-2.5-3.2-3.3-5.2
		c-0.8-2-1.2-4-1.2-6c0-2.1,0.4-4.1,1.1-6c0.7-1.8,1.8-3.5,3.2-5c1.5-1.6,3.2-2.9,5.1-3.7s3.9-1.2,6.2-1.2c2.7,0,5.1,0.6,7.4,1.8
		c2.3,1.2,4.2,3,5.6,5.2c0.9,1.4,1.5,2.9,1.9,4.5c0.4,1.6,0.6,3.5,0.6,5.6v0.8H563.8z M583.2,39.4c-0.7-2.5-1.8-4.4-3.5-5.8
		c-1.7-1.4-3.7-2-6-2c-2.4,0-4.4,0.7-6.2,2.1c-1.7,1.4-2.9,3.3-3.6,5.7H583.2z"/>
	<path class="st2" d="M591.8,47.6h5.1c0,1.6,0.4,2.9,1.3,3.9c0.9,1,2,1.6,3.3,1.6c1.3,0,2.3-0.4,3.1-1.2c0.8-0.8,1.2-1.8,1.2-3
		c0-1.1-0.3-2-0.9-2.7c-0.6-0.7-1.5-1.4-2.8-1.9c-0.4-0.2-1.1-0.4-1.9-0.7c-2.1-0.8-3.5-1.4-4.1-1.9c-1.1-0.9-1.9-1.8-2.4-2.9
		c-0.5-1.1-0.8-2.3-0.8-3.8c0-2.5,0.9-4.5,2.6-6.3c1.7-1.7,3.8-2.6,6.3-2.6c2.6,0,4.6,0.8,6.1,2.3c1.5,1.5,2.3,3.6,2.5,6.3h-5.2
		c-0.1-1.1-0.5-2-1.1-2.6c-0.6-0.6-1.5-0.9-2.6-0.9c-1,0-1.8,0.3-2.4,1c-0.6,0.7-1,1.5-1,2.5c0,1.7,1.5,3.1,4.4,4.1
		c0.8,0.3,1.5,0.6,1.9,0.7c2.3,0.9,3.9,2.1,4.9,3.5c1,1.4,1.5,3.2,1.5,5.6c0,2.7-0.9,5-2.7,6.7c-1.8,1.8-4.1,2.7-6.9,2.7
		c-2.8,0-5.1-0.9-6.8-2.8C592.9,53.4,591.9,50.8,591.8,47.6z"/>
</g>
<g>
	<path class="st3" d="M134.2,99.9h-7.1V74.4h8.2c3.8,0,6.9,1.2,9.2,3.5c2.3,2.4,3.5,5.4,3.5,9.3c0,2.2-0.4,4.1-1.3,5.9
		c-0.9,1.8-2.1,3.3-3.8,4.5c-1.1,0.8-2.3,1.4-3.6,1.7C138.1,99.7,136.4,99.9,134.2,99.9z M130.7,96.4h4.5c2.8,0,5.1-0.8,6.7-2.5
		c1.6-1.6,2.5-3.9,2.5-6.7c0-2.9-0.9-5.2-2.6-6.9s-4.2-2.5-7.2-2.5h-3.8V96.4z"/>
	<path class="st3" d="M154.1,91.5c0.3,1.6,1,2.9,2.2,3.9c1.2,1,2.5,1.5,4.1,1.5c1.1,0,2.2-0.3,3.1-0.8c0.9-0.5,1.7-1.3,2.2-2.3h3.9
		c-0.9,2.1-2.1,3.8-3.7,4.9s-3.4,1.7-5.5,1.7c-1.4,0-2.7-0.3-3.9-0.8c-1.2-0.5-2.2-1.3-3.2-2.3c-0.9-0.9-1.6-2-2.1-3.3
		c-0.5-1.3-0.8-2.5-0.8-3.8c0-1.4,0.2-2.6,0.7-3.8c0.5-1.2,1.1-2.2,2-3.2c1-1,2-1.8,3.2-2.4c1.2-0.5,2.5-0.8,3.9-0.8
		c1.7,0,3.3,0.4,4.7,1.2c1.4,0.8,2.6,1.9,3.6,3.3c0.6,0.9,1,1.8,1.2,2.9c0.3,1,0.4,2.2,0.4,3.6v0.5H154.1z M166.4,88.4
		c-0.4-1.6-1.2-2.8-2.2-3.7c-1.1-0.9-2.3-1.3-3.8-1.3c-1.5,0-2.8,0.4-3.9,1.3c-1.1,0.9-1.9,2.1-2.3,3.6H166.4z"/>
	<path class="st3" d="M173.4,99.9V74.4h3.4v25.4H173.4z"/>
	<path class="st3" d="M184.6,78.4h-3.4v-4h3.4V78.4z M181.2,99.9V80.6h3.4v19.2H181.2z"/>
	<path class="st3" d="M196.9,99.9h-2.6L187,80.6h3.7l5,14l5.2-14h3.6L196.9,99.9z"/>
	<path class="st3" d="M209.4,91.5c0.3,1.6,1,2.9,2.2,3.9c1.2,1,2.5,1.5,4.1,1.5c1.1,0,2.2-0.3,3.1-0.8c0.9-0.5,1.7-1.3,2.2-2.3h3.9
		c-0.9,2.1-2.1,3.8-3.7,4.9s-3.4,1.7-5.5,1.7c-1.4,0-2.7-0.3-3.9-0.8c-1.2-0.5-2.2-1.3-3.2-2.3c-0.9-0.9-1.6-2-2.1-3.3
		c-0.5-1.3-0.8-2.5-0.8-3.8c0-1.4,0.2-2.6,0.7-3.8c0.5-1.2,1.1-2.2,2-3.2c1-1,2-1.8,3.2-2.4c1.2-0.5,2.5-0.8,3.9-0.8
		c1.7,0,3.3,0.4,4.7,1.2c1.4,0.8,2.6,1.9,3.6,3.3c0.6,0.9,1,1.8,1.2,2.9c0.3,1,0.4,2.2,0.4,3.6v0.5H209.4z M221.8,88.4
		c-0.4-1.6-1.2-2.8-2.2-3.7c-1.1-0.9-2.3-1.3-3.8-1.3c-1.5,0-2.8,0.4-3.9,1.3c-1.1,0.9-1.9,2.1-2.3,3.6H221.8z"/>
	<path class="st3" d="M232.3,99.9h-3.5V80.6h3.2v2.2c0.6-0.8,1.2-1.5,2-1.9c0.7-0.4,1.6-0.6,2.6-0.6v3.6c-1.5,0.1-2.7,0.6-3.3,1.4
		c-0.7,0.8-1,2.1-1,3.8V99.9z"/>
	<path class="st3" d="M242.8,78.4h-3.4v-4h3.4V78.4z M239.4,99.9V80.6h3.4v19.2H239.4z"/>
	<path class="st3" d="M250.6,99.9h-3.5V80.6h3.3v2.2c0.7-0.9,1.5-1.5,2.4-1.9c0.9-0.4,1.9-0.6,3-0.6c2.5,0,4.4,0.7,5.8,2.2
		c1.3,1.5,2,3.6,2,6.4v10.9h-3.5V89.7c0-2-0.4-3.5-1.1-4.5c-0.8-1-1.9-1.5-3.5-1.5c-1.7,0-3,0.6-3.7,1.7c-0.8,1.2-1.2,3.1-1.2,5.7
		V99.9z"/>
	<path class="st3" d="M268.2,101.4h3.7c0.5,0.9,1.2,1.6,2.1,2.1c0.9,0.5,1.9,0.7,3,0.7c1.9,0,3.5-0.6,4.7-1.8
		c1.2-1.2,1.8-2.7,1.8-4.7v-0.2c-0.9,0.9-1.9,1.6-3,2.1c-1.1,0.5-2.2,0.7-3.5,0.7c-2.9,0-5.3-1-7.2-2.9c-1.9-1.9-2.9-4.3-2.9-7.2
		c0-1.4,0.2-2.6,0.7-3.8c0.5-1.2,1.2-2.3,2-3.2c1-1,2-1.8,3.2-2.2c1.1-0.5,2.5-0.7,3.9-0.7c1.3,0,2.5,0.2,3.6,0.7
		c1.1,0.5,2.1,1.2,3.1,2.1v-2.3h3.5v16c0,3.3-0.9,6-2.6,7.8c-1.7,1.9-4.1,2.8-7.2,2.8c-2.2,0-4.1-0.5-5.6-1.6
		C269.9,104.8,268.8,103.3,268.2,101.4z M270.5,90.1c0,1.9,0.6,3.6,1.9,4.9s2.9,2,4.7,2c1.7,0,3.2-0.7,4.5-2
		c1.3-1.3,1.9-2.9,1.9-4.6c0-1.9-0.6-3.5-1.9-4.8c-1.3-1.3-2.8-2-4.6-2c-1.8,0-3.4,0.6-4.7,1.9C271.1,86.7,270.5,88.3,270.5,90.1z"
		/>
	<path class="st3" d="M305.4,99.9h-3.7V74.4h3.7V99.9z"/>
	<path class="st3" d="M313.4,99.9h-3.5V80.6h3.3v2.2c0.7-0.9,1.5-1.5,2.4-1.9c0.9-0.4,1.9-0.6,3-0.6c2.5,0,4.4,0.7,5.8,2.2
		c1.3,1.5,2,3.6,2,6.4v10.9h-3.5V89.7c0-2-0.4-3.5-1.1-4.5c-0.8-1-1.9-1.5-3.5-1.5c-1.7,0-3,0.6-3.7,1.7c-0.8,1.2-1.2,3.1-1.2,5.7
		V99.9z"/>
	<path class="st3" d="M331.8,99.9V83.8h-2.7v-3.1h2.7v-6.2h3.4v6.2h2.7v3.1h-2.7v16.1H331.8z"/>
	<path class="st3" d="M343.3,91.5c0.3,1.6,1,2.9,2.2,3.9c1.2,1,2.5,1.5,4.1,1.5c1.1,0,2.2-0.3,3.1-0.8c0.9-0.5,1.7-1.3,2.2-2.3h3.9
		c-0.9,2.1-2.1,3.8-3.7,4.9s-3.4,1.7-5.5,1.7c-1.4,0-2.7-0.3-3.9-0.8c-1.2-0.5-2.2-1.3-3.2-2.3c-0.9-0.9-1.6-2-2.1-3.3
		c-0.5-1.3-0.8-2.5-0.8-3.8c0-1.4,0.2-2.6,0.7-3.8c0.5-1.2,1.1-2.2,2-3.2c1-1,2-1.8,3.2-2.4c1.2-0.5,2.5-0.8,3.9-0.8
		c1.7,0,3.3,0.4,4.7,1.2c1.4,0.8,2.6,1.9,3.6,3.3c0.6,0.9,1,1.8,1.2,2.9c0.3,1,0.4,2.2,0.4,3.6v0.5H343.3z M355.7,88.4
		c-0.4-1.6-1.2-2.8-2.2-3.7c-1.1-0.9-2.3-1.3-3.8-1.3c-1.5,0-2.8,0.4-3.9,1.3c-1.1,0.9-1.9,2.1-2.3,3.6H355.7z"/>
	<path class="st3" d="M362.7,99.9V74.4h3.4v25.4H362.7z"/>
	<path class="st3" d="M370.4,99.9V74.4h3.4v25.4H370.4z"/>
	<path class="st3" d="M381.6,78.4h-3.4v-4h3.4V78.4z M378.2,99.9V80.6h3.4v19.2H378.2z"/>
	<path class="st3" d="M386.2,101.4h3.7c0.5,0.9,1.2,1.6,2.1,2.1c0.9,0.5,1.9,0.7,3,0.7c1.9,0,3.5-0.6,4.7-1.8
		c1.2-1.2,1.8-2.7,1.8-4.7v-0.2c-0.9,0.9-1.9,1.6-3,2.1c-1.1,0.5-2.2,0.7-3.5,0.7c-2.9,0-5.3-1-7.2-2.9c-1.9-1.9-2.9-4.3-2.9-7.2
		c0-1.4,0.2-2.6,0.7-3.8c0.5-1.2,1.2-2.3,2-3.2c1-1,2-1.8,3.2-2.2c1.1-0.5,2.5-0.7,3.9-0.7c1.3,0,2.5,0.2,3.6,0.7
		c1.1,0.5,2.1,1.2,3.1,2.1v-2.3h3.5v16c0,3.3-0.9,6-2.6,7.8c-1.7,1.9-4.1,2.8-7.2,2.8c-2.2,0-4.1-0.5-5.6-1.6
		C388,104.8,386.9,103.3,386.2,101.4z M388.5,90.1c0,1.9,0.6,3.6,1.9,4.9s2.9,2,4.7,2c1.7,0,3.2-0.7,4.5-2c1.3-1.3,1.9-2.9,1.9-4.6
		c0-1.9-0.6-3.5-1.9-4.8c-1.3-1.3-2.8-2-4.6-2c-1.8,0-3.4,0.6-4.7,1.9C389.2,86.7,388.5,88.3,388.5,90.1z"/>
	<path class="st3" d="M411.8,91.5c0.3,1.6,1,2.9,2.2,3.9c1.2,1,2.5,1.5,4.1,1.5c1.1,0,2.2-0.3,3.1-0.8c0.9-0.5,1.7-1.3,2.2-2.3h3.9
		c-0.9,2.1-2.1,3.8-3.7,4.9s-3.4,1.7-5.5,1.7c-1.4,0-2.7-0.3-3.9-0.8c-1.2-0.5-2.2-1.3-3.2-2.3c-0.9-0.9-1.6-2-2.1-3.3
		c-0.5-1.3-0.8-2.5-0.8-3.8c0-1.4,0.2-2.6,0.7-3.8c0.5-1.2,1.1-2.2,2-3.2c1-1,2-1.8,3.2-2.4c1.2-0.5,2.5-0.8,3.9-0.8
		c1.7,0,3.3,0.4,4.7,1.2c1.4,0.8,2.6,1.9,3.6,3.3c0.6,0.9,1,1.8,1.2,2.9c0.3,1,0.4,2.2,0.4,3.6v0.5H411.8z M424.1,88.4
		c-0.4-1.6-1.2-2.8-2.2-3.7c-1.1-0.9-2.3-1.3-3.8-1.3c-1.5,0-2.8,0.4-3.9,1.3c-1.1,0.9-1.9,2.1-2.3,3.6H424.1z"/>
	<path class="st3" d="M434.6,99.9h-3.5V80.6h3.3v2.2c0.7-0.9,1.5-1.5,2.4-1.9c0.9-0.4,1.9-0.6,3-0.6c2.5,0,4.4,0.7,5.8,2.2
		c1.3,1.5,2,3.6,2,6.4v10.9h-3.5V89.7c0-2-0.4-3.5-1.1-4.5c-0.8-1-1.9-1.5-3.5-1.5c-1.7,0-3,0.6-3.7,1.7c-0.8,1.2-1.2,3.1-1.2,5.7
		V99.9z"/>
	<path class="st3" d="M453.1,99.9V83.8h-2.7v-3.1h2.7v-6.2h3.4v6.2h2.7v3.1h-2.7v16.1H453.1z"/>
	<path class="st3" d="M471.2,92.5h3.3c0.1,1.3,0.4,2.4,1.2,3.2c0.7,0.8,1.7,1.2,2.8,1.2c1.3,0,2.3-0.4,3-1.2
		c0.8-0.8,1.1-1.8,1.1-3.2c0-1.2-0.3-2-0.8-2.7c-0.6-0.6-1.7-1.2-3.5-1.8c-0.1,0-0.3-0.1-0.5-0.1c-2.1-0.6-3.7-1.5-4.6-2.8
		c-0.4-0.6-0.8-1.2-1-1.8c-0.2-0.6-0.3-1.3-0.3-2.1c0-2.2,0.6-3.9,1.9-5.3c1.3-1.3,3-2,5.1-2c1.9,0,3.5,0.6,4.7,1.8
		c1.2,1.2,1.9,2.9,2,4.9h-3.4c-0.1-1-0.4-1.8-1-2.5c-0.6-0.6-1.4-0.9-2.3-0.9c-1,0-1.8,0.3-2.5,1c-0.6,0.7-1,1.6-1,2.7
		c0,0.4,0.1,0.7,0.2,1.1c0.1,0.3,0.3,0.7,0.5,0.9c0.5,0.6,1.6,1.1,3.2,1.5c0.8,0.2,1.3,0.4,1.7,0.5c1.7,0.6,2.9,1.5,3.8,2.7
		c0.9,1.2,1.3,2.6,1.3,4.3c0,2.5-0.7,4.4-2.1,5.9c-1.4,1.5-3.2,2.3-5.6,2.3c-2.2,0-3.9-0.7-5.3-2.2
		C471.9,96.8,471.2,94.9,471.2,92.5z"/>
	<path class="st3" d="M488.5,90.3c0-1.4,0.2-2.6,0.7-3.8c0.5-1.2,1.1-2.2,2-3.2c1-1,2.1-1.8,3.3-2.4c1.2-0.6,2.5-0.8,3.8-0.8
		c1.4,0,2.7,0.3,3.9,0.8c1.2,0.5,2.3,1.2,3.2,2.2c0.9,1,1.7,2.1,2.2,3.3c0.5,1.2,0.8,2.5,0.8,3.8c0,1.3-0.2,2.6-0.7,3.8
		c-0.5,1.2-1.1,2.3-2,3.3c-1,1.1-2.1,1.9-3.3,2.4c-1.2,0.6-2.5,0.8-3.9,0.8c-1.4,0-2.7-0.3-3.9-0.8c-1.2-0.5-2.3-1.3-3.2-2.2
		c-0.9-0.9-1.6-2-2.1-3.3C488.7,92.9,488.5,91.6,488.5,90.3z M492.1,90.2c0,1.9,0.6,3.5,1.8,4.8c1.2,1.3,2.7,1.9,4.5,1.9
		c1.8,0,3.3-0.6,4.5-1.9c1.2-1.3,1.8-2.9,1.8-4.8c0-1.9-0.6-3.6-1.8-4.8c-1.2-1.3-2.7-1.9-4.5-1.9c-1.8,0-3.3,0.6-4.5,1.9
		C492.7,86.7,492.1,88.3,492.1,90.2z"/>
	<path class="st3" d="M511.5,99.9V74.4h3.4v25.4H511.5z"/>
	<path class="st3" d="M535.3,99.9h-3.3v-2.1c-0.7,0.9-1.5,1.5-2.3,1.9c-0.9,0.4-1.8,0.6-2.9,0.6c-2.4,0-4.3-0.8-5.6-2.3
		c-1.3-1.5-2-3.6-2-6.3V80.6h3.5v10.1c0,2.1,0.4,3.6,1.1,4.7c0.7,1,1.8,1.6,3.3,1.6c0.9,0,1.7-0.2,2.4-0.6c0.7-0.4,1.3-1,1.7-1.8
		c0.3-0.5,0.4-1.1,0.6-1.7c0.1-0.7,0.2-1.8,0.2-3.3v-8.8h3.4V99.9z"/>
	<path class="st3" d="M540.8,99.9V83.8h-2.7v-3.1h2.7v-6.2h3.4v6.2h2.7v3.1h-2.7v16.1H540.8z"/>
	<path class="st3" d="M553.1,78.4h-3.4v-4h3.4V78.4z M549.7,99.9V80.6h3.4v19.2H549.7z"/>
	<path class="st3" d="M556.3,90.3c0-1.4,0.2-2.6,0.7-3.8c0.5-1.2,1.1-2.2,2-3.2c1-1,2.1-1.8,3.3-2.4c1.2-0.6,2.5-0.8,3.8-0.8
		c1.4,0,2.7,0.3,3.9,0.8c1.2,0.5,2.3,1.2,3.2,2.2c0.9,1,1.7,2.1,2.2,3.3c0.5,1.2,0.8,2.5,0.8,3.8c0,1.3-0.2,2.6-0.7,3.8
		c-0.5,1.2-1.1,2.3-2,3.3c-1,1.1-2.1,1.9-3.3,2.4c-1.2,0.6-2.5,0.8-3.9,0.8c-1.4,0-2.7-0.3-3.9-0.8c-1.2-0.5-2.3-1.3-3.2-2.2
		c-0.9-0.9-1.6-2-2.1-3.3C556.6,92.9,556.3,91.6,556.3,90.3z M559.9,90.2c0,1.9,0.6,3.5,1.8,4.8c1.2,1.3,2.7,1.9,4.5,1.9
		c1.8,0,3.3-0.6,4.5-1.9c1.2-1.3,1.8-2.9,1.8-4.8c0-1.9-0.6-3.6-1.8-4.8c-1.2-1.3-2.7-1.9-4.5-1.9c-1.8,0-3.3,0.6-4.5,1.9
		S559.9,88.3,559.9,90.2z"/>
	<path class="st3" d="M582.8,99.9h-3.5V80.6h3.3v2.2c0.7-0.9,1.5-1.5,2.4-1.9c0.9-0.4,1.9-0.6,3-0.6c2.5,0,4.4,0.7,5.8,2.2
		c1.3,1.5,2,3.6,2,6.4v10.9h-3.5V89.7c0-2-0.4-3.5-1.1-4.5c-0.8-1-1.9-1.5-3.5-1.5c-1.7,0-3,0.6-3.7,1.7c-0.8,1.2-1.2,3.1-1.2,5.7
		V99.9z"/>
	<path class="st3" d="M598.8,93.6h3.2c0,1,0.3,1.8,0.8,2.5c0.6,0.7,1.3,1,2.1,1c0.8,0,1.5-0.2,2-0.7c0.5-0.5,0.8-1.1,0.8-1.9
		c0-0.7-0.2-1.2-0.6-1.7c-0.4-0.5-1-0.9-1.8-1.2c-0.3-0.1-0.7-0.3-1.2-0.5c-1.4-0.5-2.2-0.9-2.6-1.2c-0.7-0.5-1.2-1.2-1.5-1.9
		c-0.3-0.7-0.5-1.5-0.5-2.4c0-1.6,0.5-2.9,1.6-4c1.1-1.1,2.4-1.6,4-1.6c1.6,0,2.9,0.5,3.9,1.4c1,1,1.5,2.3,1.6,4h-3.3
		c-0.1-0.7-0.3-1.3-0.7-1.7c-0.4-0.4-1-0.6-1.6-0.6c-0.6,0-1.1,0.2-1.5,0.6c-0.4,0.4-0.6,1-0.6,1.6c0,1.1,0.9,2,2.8,2.6
		c0.5,0.2,0.9,0.4,1.2,0.5c1.5,0.6,2.5,1.3,3.1,2.2c0.6,0.9,0.9,2.1,0.9,3.5c0,1.7-0.6,3.2-1.7,4.3c-1.2,1.1-2.6,1.7-4.4,1.7
		c-1.8,0-3.2-0.6-4.3-1.8C599.5,97.4,598.9,95.7,598.8,93.6z"/>
</g>
</svg>
